<svg height="512pt" viewBox="0 0 512 512" width="512pt" xmlns="http://www.w3.org/2000/svg"><path d="m10.667969 10.667969h490.664062v490.664062h-490.664062zm0 0" fill="#f2f2f2"/><path d="m10.667969 10.667969h490.664062v85.332031h-490.664062zm0 0" fill="#67809f"/><path d="m501.332031 0h-490.664062c-5.898438 0-10.667969 4.777344-10.667969 10.667969v490.664062c0 5.890625 4.769531 10.667969 10.667969 10.667969h490.664062c5.898438 0 10.667969-4.777344 10.667969-10.667969v-490.664062c0-5.890625-4.769531-10.667969-10.667969-10.667969zm-480 21.332031h469.335938v64h-469.335938zm0 469.335938v-384h469.335938v384zm0 0"/><path d="m42.667969 42.667969h21.332031v21.332031h-21.332031zm0 0"/><path d="m85.332031 42.667969h21.335938v21.332031h-21.335938zm0 0"/><path d="m128 42.667969h21.332031v21.332031h-21.332031zm0 0"/><path d="m426.667969 42.667969h42.664062v21.332031h-42.664062zm0 0"/><path d="m384 42.667969h21.332031v21.332031h-21.332031zm0 0"/><path d="m416 224h32c5.886719 0 10.667969 4.777344 10.667969 10.667969v192c0 5.886719-4.78125 10.664062-10.667969 10.664062h-384c-5.886719 0-10.667969-4.777343-10.667969-10.664062v-192c0-5.890625 4.78125-10.667969 10.667969-10.667969zm0 0" fill="#fa5419"/><path d="m170.667969 320h-42.667969v-64h-21.332031v64c0 11.765625 9.566406 21.332031 21.332031 21.332031h42.667969v64h21.332031v-149.332031h-21.332031zm0 0"/><path d="m384 256v64h-42.667969v-64h-21.332031v64c0 11.765625 9.566406 21.332031 21.332031 21.332031h42.667969v64h21.332031v-149.332031zm0 0"/><path d="m277.332031 394.667969h-42.664062c-5.890625 0-10.667969-4.78125-10.667969-10.667969v-106.667969c0-5.886719 4.777344-10.664062 10.667969-10.664062h42.664062c5.890625 0 10.667969 4.777343 10.667969 10.664062v106.667969c0 5.886719-4.777344 10.667969-10.667969 10.667969zm0 0" fill="#fed96c"/><path d="m277.332031 405.332031h-42.664062c-11.765625 0-21.335938-9.566406-21.335938-21.332031v-106.667969c0-11.765625 9.570313-21.332031 21.335938-21.332031h42.664062c11.765625 0 21.335938 9.566406 21.335938 21.332031v106.667969c0 11.765625-9.570313 21.332031-21.335938 21.332031zm-42.664062-128v106.667969h42.675781l-.011719-106.667969zm0 0"/><path d="m448 448h-384c-11.765625 0-21.332031-9.566406-21.332031-21.332031v-192c0-11.765625 9.566406-21.335938 21.332031-21.335938h32v21.335938h-32v192h384v-192h-32v-21.335938h32c11.765625 0 21.332031 9.570313 21.332031 21.335938v192c0 11.765625-9.566406 21.332031-21.332031 21.332031zm0 0"/><path d="m138.667969 213.332031h234.664062v21.335938h-234.664062zm0 0"/><path d="m96 170.667969h10.667969v64h21.332031v-64h10.667969v-21.335938h-42.667969zm0 0"/><path d="m416 149.332031h-42.667969v21.335938h10.667969v64h21.332031v-64h10.667969zm0 0"/></svg>